<?xml version="1.0" standalone="no"?>
<!DOCTYPE svg PUBLIC "-//W3C//DTD SVG 20010904//EN"
 "http://www.w3.org/TR/2001/REC-SVG-20010904/DTD/svg10.dtd">
<svg version="1.0" xmlns="http://www.w3.org/2000/svg"
 width="260.000000pt" height="260.000000pt" viewBox="0 0 260.000000 260.000000"
 preserveAspectRatio="xMidYMid meet">
<metadata>
Created by potrace 1.11, written by Peter Selinger 2001-2013
</metadata>
<g transform="translate(0.000000,260.000000) scale(0.100000,-0.100000)"
fill="#000000" stroke="none">
<path d="M2 1303 l3 -1208 225 0 c124 0 234 1 246 3 l20 4 1 826 c1 455 2 836
3 847 0 11 17 -25 36 -80 76 -214 94 -264 132 -375 22 -63 61 -173 86 -245 26
-71 48 -137 51 -145 2 -8 13 -42 25 -75 12 -33 57 -161 100 -285 43 -124 97
-279 120 -345 23 -66 45 -122 50 -125 4 -3 97 -5 206 -5 l198 1 64 184 c35
102 100 289 144 415 44 127 86 248 93 270 7 22 45 132 85 245 39 113 73 212
75 220 2 8 15 44 28 80 13 36 41 116 62 178 21 61 41 112 44 112 3 0 5 -382 5
-849 -1 -774 0 -850 15 -853 9 -2 120 -3 246 -3 l230 0 3 1208 2 1207 -374 0
-375 0 -6 -22 c-4 -13 -33 -104 -65 -203 -32 -99 -76 -236 -98 -305 -82 -258
-223 -696 -232 -720 -5 -14 -36 -112 -70 -218 -34 -106 -64 -191 -66 -189 -5
4 -38 103 -256 742 -266 785 -308 908 -308 912 0 1 -169 3 -375 3 l-375 0 2
-1207z"/>
</g>
</svg>
